<svg xmlns="http://www.w3.org/2000/svg" xml:space="preserve" viewBox="1769.189 0 90 51.657"><path fill="#706F6F" d="m1791.151 34.692 9.83-14.524 56.867-18.827z"/><path d="m1857.848 1.341-66.697 33.352 9.83-14.524zm0-1.341q-.21 0-.421.068l-56.867 18.828a1.34 1.34 0 0 0-.689.521l-9.83 14.524a1.34 1.34 0 0 0 1.709 1.95l66.697-33.352a1.34 1.34 0 0 0-.599-2.539"/><path fill="#FFF" d="m1770.529 1.34 17.721 10.976 2.901 22.376 9.83-14.524 23.516 14.524 33.351-33.351z"/><path d="M1770.529 1.34h87.319l-33.352 33.352-23.515-14.524-9.83 14.524-2.902-22.376zm0-1.34a1.34 1.34 0 0 0-.706 2.48l17.179 10.64 2.82 21.744a1.341 1.341 0 0 0 2.44.58l9.11-13.459 22.421 13.848a1.34 1.34 0 0 0 1.652-.192l33.352-33.351a1.342 1.342 0 0 0-.949-2.29z"/><path d="m1787.671 12.825-.105-.662 70.229-11.153.106.662z"/><path fill="none" d="m1801.118 20.467 56.591-19.059"/><path d="m1801.225 20.784-.215-.635 56.592-19.059.214.635z"/><path fill="rgba(0, 0, 0, 0.05)" d="M1772.84 47.642c0-2.218 18.165-4.015 40.571-4.015 22.408 0 40.572 1.797 40.572 4.015s-18.164 4.015-40.572 4.015c-22.407 0-40.571-1.798-40.571-4.015"/></svg>