<svg xmlns="http://www.w3.org/2000/svg" xml:space="preserve" id="Livello_1" x="0" y="0" version="1.1" viewBox="0 0 306.7 76.9"><style>.st0{fill:#fff}.st1{fill:#777}</style><path d="M268.4 43.5h-67.8c-3.9 0-7 3.1-7 7v19.6c0 3.8 3 7 6.9 7h67.9c3.8 0 7-3 7-6.9V50.5c.1-3.8-2.9-7-6.7-7zm-90.6 0h-63.2c-3.8.1-6.8 3.2-6.8 7v19.6c-.1 3.8 3 6.9 6.8 7h63.2c3.8-.1 6.8-3.2 6.8-7V50.5c0-3.8-3-6.9-6.8-7" class="st0"/><path id="Tracciato_149" d="M132.7 66h-.7v-1.5c0-.2-.2-.4-.4-.5h-.3v-7.7h1.1c.2 0 .4-.2.4-.5 0-.1-.1-.3-.2-.4l-8.2-5.8c-.2-.1-.4-.1-.5 0l-8.2 5.9c-.2.1-.2.4-.1.6.1.1.2.2.4.2h1.1v7.8h-.4c-.2 0-.4.2-.4.4V66h-.7c-.2 0-.4.2-.4.4v2c0 .2.2.4.4.5h17.2c.2 0 .4-.2.4-.4v-2c-.1-.2-.2-.4-.5-.5m-2.3-2h-.6v-7.7h.6zm-1.5-7.8V64h-9.5v-7.7zm-4.8-5.7 6.8 4.9h-13.7zm-6.2 5.7h.6V64h-.6zM117 65h14.1v1H117zm15.3 3h-16.4v-1.1h16.3z" class="st1"/><path id="Tracciato_150" d="M124.1 52c-.8 0-1.4.6-1.4 1.4s.6 1.4 1.4 1.5c.8-.1 1.4-.8 1.3-1.6 0-.7-.6-1.2-1.3-1.3m0 2c-.3 0-.6-.3-.6-.6s.3-.6.6-.6.6.3.6.6-.2.6-.6.6c.1 0 0 0 0 0" class="st1"/><path id="Tracciato_151" d="M122.2 60.2h.1v.2h-.1c-.2 0-.4.2-.4.5 0 .2.2.4.4.4h.4c.5 1.1 1.8 1.7 3 1.2.2-.1.3-.3.2-.6-.1-.2-.3-.3-.5-.2-.6.2-1.2.1-1.6-.4h-.1 1.3c.2 0 .4-.2.4-.5 0-.2-.2-.4-.4-.4h-1.7v-.2h1.9c.2 0 .4-.2.5-.4 0-.2-.2-.4-.4-.5h-1.7c.4-.6 1.1-.8 1.8-.5.2.1.5 0 .6-.3.1-.2 0-.5-.2-.6-1.2-.4-2.5.2-3 1.4h-.3c-.2 0-.4.2-.5.4-.2.3.1.5.3.5" class="st1"/><path d="m141.3 53.6 1.4 4.3h.1l1.4-4.3h1.3l-1.9 5.6h-1.7l-1.9-5.6zm5.2.9c-.2 0-.3-.1-.4-.2-.2-.2-.3-.6 0-.8.1-.1.3-.2.4-.2.2 0 .3.1.4.2.2.2.3.6 0 .8-.1.1-.3.2-.4.2m-.6 4.8v-4.2h1.2v4.2zm1.9 0v-4.2h1.1v.7c.1-.2.2-.4.4-.6.2-.1.4-.2.6-.2h.4v1h-.5c-.2 0-.5.1-.6.2q-.3.3-.3.6v2.4zm4.7.1c-.4 0-.8-.1-1.1-.3s-.6-.4-.7-.8c-.2-.4-.3-.8-.2-1.2 0-.4.1-.8.2-1.2.2-.3.4-.6.7-.8s.7-.3 1.1-.2c.3 0 .7.1 1 .2.3.2.6.4.7.7q.3.6.3 1.2v.3h-2.9c0 .3.1.5.3.7s.4.3.7.3c.2 0 .4 0 .5-.1s.2-.2.3-.4l1.1.1q-.15.6-.6.9c-.4.5-.9.6-1.4.6m-.9-2.7h1.8c0-.5-.4-.9-.9-.9q-.3 0-.6.3t-.3.6m3.5 2.6v-4.2h1.2v.7c.1-.2.2-.4.4-.6.4-.3 1-.3 1.5 0 .2.1.3.3.4.6h.1c.1-.2.3-.4.5-.6.2-.1.5-.2.8-.2.4 0 .7.1 1 .4s.4.7.4 1.1v2.8h-1.2v-2.6c0-.2-.1-.4-.2-.5-.3-.3-.7-.3-1 0-.1.1-.2.3-.2.5v2.6h-1.1v-2.6c0-.2-.1-.4-.2-.5s-.3-.2-.5-.2-.4.1-.5.2c-.1.2-.2.4-.2.6v2.5zm8.8.1c-.4 0-.8-.1-1.1-.3s-.6-.4-.7-.8c-.2-.4-.3-.8-.2-1.2 0-.4.1-.8.2-1.2.2-.3.4-.6.7-.8s.7-.3 1.1-.3c.3 0 .7.1 1 .2.3.2.6.4.7.7q.3.6.3 1.2v.3H163c0 .3.1.5.3.7s.4.3.7.3c.2 0 .4 0 .5-.1s.2-.2.3-.4l1.1.1q-.15.6-.6.9c-.5.5-.9.7-1.4.7m-.9-2.7h1.8c0-.2-.1-.5-.2-.6-.2-.2-.4-.2-.6-.2s-.5.1-.6.2c-.3.2-.4.4-.4.6m4.6.1v2.4h-1.2V55h1.1v.7h.1c.1-.2.3-.4.5-.6s.5-.2.8-.2c.4 0 .7.2 1 .4.3.3.4.7.4 1.2v2.7h-1.2v-2.5c0-.2-.1-.4-.2-.6-.1-.1-.4-.2-.6-.2s-.4.1-.6.2c0 .3-.1.5-.1.7m5.8-1.7v.9h-.8v2c0 .1 0 .2.1.3s.2.1.3.1h.3l.2.9-.2.1h-.4c-.4 0-.7-.1-1-.3s-.4-.6-.4-.9V56h-.6v-.9h.6v-1h1.2v1zm-33.1 12.6V62h2.2c.5 0 1 .1 1.4.4.3.2.5.6.5 1 0 .3-.1.6-.3.8s-.5.3-.7.4v.1c.2 0 .4.1.6.2s.3.3.5.5c.1.2.2.5.2.7 0 .3-.1.6-.2.8l-.6.6c-.3.1-.7.2-1.1.2zm1.2-3.3h.9c.2 0 .4-.1.6-.2s.3-.3.2-.5c0-.2-.1-.4-.2-.5-.2-.1-.4-.2-.6-.2h-.9zm0 2.3h1c.3 0 .5 0 .7-.2.1-.1.2-.3.2-.5s-.1-.4-.2-.6c-.2-.2-.4-.2-.7-.2h-1zm4.9 1.1c-.4 0-.7-.1-1-.3s-.4-.6-.4-.9.1-.5.2-.7c.2-.2.4-.3.6-.4.3-.1.5-.1.8-.2.3 0 .5-.1.8-.1.2 0 .2-.1.2-.3 0-.1-.1-.3-.2-.4s-.3-.2-.5-.1c-.2 0-.4 0-.5.1s-.2.2-.2.3l-1.1-.1q.15-.6.6-.9c.4-.2.8-.4 1.2-.3.3 0 .6 0 .9.2.3.1.5.2.7.5.2.2.3.5.2.8v2.8h-1.1v-.6c-.1.2-.3.4-.5.5-.1 0-.4.1-.7.1m.3-.9c.2 0 .5-.1.6-.2.2-.1.3-.3.2-.6v-.4c-.1 0-.1.1-.2.1s-.2.1-.3.1l-.3.1c-.2 0-.3.1-.5.2-.1.1-.2.2-.2.4 0 .1.1.3.2.4.2-.1.4-.1.5-.1m4-1.7v2.4h-1.2v-4.2h1.1v.7c.1-.2.3-.4.5-.6s.5-.2.8-.2c.4 0 .8.1 1.1.4s.4.7.4 1.2v2.7h-1.1v-2.5c0-.2-.1-.4-.2-.6-.1-.1-.3-.2-.6-.2-.2 0-.4.1-.6.2-.1.3-.2.5-.2.7m5.4 2.6c-.4 0-.8-.1-1.1-.3s-.6-.4-.7-.8c-.3-.7-.3-1.6 0-2.3.2-.3.4-.6.7-.8s.7-.3 1.1-.3c.3 0 .7.1 1 .2q.45.15.6.6c.2.3.3.5.3.8h-1.1c0-.2-.1-.4-.2-.5s-.3-.2-.5-.2c-.3 0-.5.1-.7.3-.3.6-.3 1.3 0 1.9.2.2.4.3.7.3.2 0 .4-.1.5-.2s.2-.3.2-.5h1.1c0 .3-.1.6-.3.8s-.4.4-.7.6c-.2.3-.6.4-.9.4m3.7 0c-.4 0-.7-.1-1-.3-.5-.4-.5-1.1-.2-1.7.2-.2.4-.3.6-.4.3-.1.5-.1.8-.2.3 0 .5-.1.8-.1.2 0 .2-.1.2-.3s0-.3-.2-.4c-.1-.1-.3-.2-.5-.1-.2 0-.4 0-.5.1s-.2.2-.2.3l-1.1-.1q.15-.6.6-.9c.4-.2.8-.4 1.2-.3.3 0 .6 0 .9.2.3.1.5.2.7.5.2.2.3.5.2.8v2.8H161v-.6c-.1.2-.3.4-.5.5s-.4.2-.7.2m.3-.9c.2 0 .5-.1.6-.2.2-.1.2-.3.2-.6v-.4c-.1 0-.1.1-.2.1s-.2.1-.3.1l-.3.1c-.2 0-.3.1-.5.2-.1.1-.2.2-.2.4 0 .1.1.3.2.4.2-.1.4-.1.5-.1m3.4-4c-.2 0-.3-.1-.4-.2-.2-.2-.3-.6 0-.8.1-.1.3-.2.4-.2.2 0 .3.1.4.2.2.2.3.6 0 .8-.1.1-.2.2-.4.2m-.6 4.8v-4.2h1.2v4.2zm2 0v-4.2h1.1v.7c.1-.2.2-.4.4-.6.2-.1.4-.2.6-.2h.4v1h-.5c-.2 0-.5.1-.6.2-.2.2-.3.4-.2.6v2.4zm4.7.1c-.4 0-.8-.1-1.1-.3s-.6-.4-.7-.8c-.2-.4-.3-.8-.2-1.2 0-.4.1-.8.2-1.2.2-.3.4-.6.7-.8s.7-.3 1.1-.3c.3 0 .7.1 1 .2.3.2.6.4.7.7q.3.6.3 1.2v.3h-2.9c0 .3.1.5.3.7s.4.3.7.3c.2 0 .4 0 .5-.1s.2-.2.3-.4l1.1.1q-.15.6-.6.9c-.5.5-1 .7-1.4.7m-1-2.7h1.8c0-.2-.1-.5-.2-.6-.2-.2-.4-.2-.6-.2s-.5.1-.6.2c-.2.2-.3.4-.4.6m44.7-6.1h-.4v-1.9c-.1-2.1-1.9-3.6-3.9-3.5-1.9.1-3.4 1.6-3.5 3.5V59h-.1c-.7 0-1.2.5-1.3 1.2v5.7c0 .7.5 1.2 1.1 1.3h8.2c.7 0 1.2-.5 1.3-1.2v-5.7c-.2-.7-.7-1.3-1.4-1.3m-6.5 0v-1.9c0-1.3 1.1-2.3 2.4-2.3s2.3 1 2.3 2.3V59zm16.6-3.5c0-.2-.1-.4-.3-.5s-.4-.2-.7-.2c-.2 0-.5 0-.7.2-.1.1-.2.3-.2.5s.1.4.3.5.4.2.6.2l.5.1.9.3c.2.1.4.3.6.5s.2.5.2.8q0 .75-.6 1.2c-.5.3-1 .5-1.6.5s-1.2-.1-1.6-.5c-.4-.3-.7-.8-.6-1.4h1.1q0 .45.3.6c.3.15.5.2.8.2s.5-.1.7-.2.3-.3.3-.5-.1-.3-.2-.4c-.2-.1-.5-.2-.7-.3l-.6-.2c-.4-.1-.8-.3-1.1-.5-.3-.3-.4-.6-.4-1q0-.45.3-.9c.2-.3.5-.5.8-.6s.7-.2 1.1-.2.7.1 1.1.2c.3.1.6.3.7.6q.3.45.3.9zm4.9 0c0-.2-.1-.4-.3-.5s-.4-.2-.7-.2c-.2 0-.5 0-.7.2-.1.1-.2.3-.2.5s.1.4.3.5.4.2.6.2l.5.1.9.3c.2.1.4.3.6.5s.2.5.2.8q0 .75-.6 1.2c-.5.3-1 .5-1.6.5s-1.2-.1-1.6-.5c-.4-.3-.7-.8-.6-1.4h1.1q0 .45.3.6c.3.15.5.2.8.2s.5-.1.7-.2.3-.3.3-.5-.1-.3-.2-.4c-.2-.1-.5-.2-.7-.3l-.6-.2c-.4-.1-.8-.3-1.1-.5-.3-.3-.4-.6-.4-1q0-.45.3-.9c.2-.3.5-.5.8-.6s.7-.2 1.1-.2.7.1 1.1.2c.3.1.6.3.7.6q.3.45.3.9zm1.9 4.1V54h1.2v4.7h2.4v1zm8.9-4.1c0-.2-.1-.4-.3-.5s-.4-.2-.7-.2c-.2 0-.5 0-.7.2-.1.1-.2.3-.2.5s.1.4.3.5.4.2.6.2l.5.1.9.3c.2.1.4.3.6.5s.2.5.2.8q0 .75-.6 1.2c-.5.3-1 .5-1.6.5s-1.2-.1-1.6-.5c-.4-.3-.6-.8-.6-1.4h1.1q0 .45.3.6c.2.1.5.2.8.2s.5-.1.7-.2.3-.3.3-.5-.1-.4-.2-.4c-.2-.1-.5-.2-.7-.3l-.6-.2c-.4-.1-.8-.3-1.1-.5-.3-.3-.4-.6-.4-1q0-.45.3-.9c.2-.3.5-.5.8-.6s.7-.2 1.1-.2.8.1 1.1.2.5.3.7.6.3.6.3.9zm3.8 4.1c-.4 0-.8-.1-1.1-.3s-.6-.4-.7-.8c-.2-.4-.3-.8-.2-1.2 0-.4.1-.8.2-1.1.2-.3.4-.6.7-.8.6-.3 1.4-.3 2.1 0 .3.2.6.4.7.7q.3.6.3 1.2v.3h-3c0 .3.1.5.2.8.2.2.4.3.7.3.2 0 .4 0 .5-.1s.2-.2.3-.4l1.1.1q-.15.6-.6.9c-.3.4-.8.5-1.2.4m-1-2.6h1.8c0-.2-.1-.5-.2-.6-.4-.3-.9-.3-1.3 0-.2.1-.2.4-.3.6m5.4 2.6c-.4 0-.8-.1-1.1-.3s-.6-.4-.7-.8c-.2-.4-.3-.7-.2-1.1 0-.4.1-.8.2-1.1.2-.3.4-.6.7-.8s.7-.3 1.1-.3c.3 0 .7.1 1 .2q.45.15.6.6c.2.3.3.5.3.8h-1.1c0-.2-.1-.4-.2-.5s-.3-.2-.5-.2c-.3 0-.5.1-.7.3-.3.6-.3 1.3 0 1.9.1.2.4.3.7.3.2 0 .4-.1.5-.2s.2-.3.2-.5h1.1c0 .3-.1.6-.3.8l-.6.6c-.3.3-.6.3-1 .3m5.2-1.8v-2.4h1.2v4.2h-1.1v-.8c-.1.2-.3.5-.5.6-.2.2-.5.2-.8.2-.4 0-.7-.1-1-.4s-.4-.7-.4-1.2v-2.7h1.2v2.5c0 .2.1.4.2.6.1.1.3.2.5.2.4 0 .7-.3.7-.8q.15 0 0 0m2 1.8v-4.2h1.1v.7c.1-.2.2-.5.4-.6s.4-.2.6-.2h.4v1h-.5c-.2 0-.5.1-.6.2-.2.2-.3.4-.2.6v2.4zm4.7 0c-.4 0-.8-.1-1.1-.3s-.6-.4-.7-.8c-.2-.4-.3-.8-.2-1.2 0-.4.1-.8.2-1.1.2-.3.4-.6.7-.8s.7-.3 1.1-.3c.3 0 .7.1 1 .2.3.2.5.4.7.7q.3.6.3 1.2v.3h-2.9c0 .3.1.5.3.8.2.2.4.3.7.3.2 0 .4 0 .5-.1s.2-.2.3-.4l1.1.1q-.15.6-.6.9c-.5.4-.9.5-1.4.5m-.9-2.6h1.8c0-.2-.1-.5-.2-.6-.2-.2-.4-.3-.6-.2-.2 0-.5.1-.6.2-.3.2-.4.4-.4.6m-33 7.3h-1.2c0-.3-.2-.5-.4-.7s-.5-.3-.8-.3c-.4 0-.8.2-1 .5-.3.4-.4.9-.4 1.4s.1 1 .4 1.4c.5.5 1.3.6 1.9.2.2-.2.4-.4.4-.7h1.2c0 .4-.2.7-.4 1s-.5.6-.8.7c-.8.4-1.8.4-2.6-.1-.4-.2-.7-.6-.9-1-.2-.5-.4-1-.3-1.6 0-.5.1-1.1.4-1.6.2-.4.5-.8.9-1s.9-.3 1.3-.3.8.1 1.2.2c.3.2.6.4.9.7.1.4.2.8.2 1.2m2.6 3.7c-.4 0-.8-.1-1.1-.3s-.6-.4-.7-.8c-.2-.4-.3-.7-.2-1.1 0-.4.1-.8.2-1.2.2-.3.4-.6.7-.8.7-.4 1.5-.4 2.2 0 .3.2.6.4.7.8.2.4.3.8.2 1.2 0 .4-.1.8-.2 1.1-.2.3-.4.6-.7.8s-.7.3-1.1.3m0-.9c.3 0 .5-.1.7-.4.3-.6.3-1.3 0-1.8-.2-.4-.7-.5-1.1-.2-.1.1-.2.1-.2.2-.3.6-.3 1.3 0 1.8.1.3.4.4.6.4m3.9-1.6V68h-1.2v-4.3h1.1v.7h.1c.1-.2.3-.4.5-.6.2-.1.5-.2.8-.2.4 0 .8.1 1.1.4s.4.7.4 1.2V68h-1.2v-2.5c0-.2-.1-.4-.2-.6s-.3-.2-.6-.2c-.2 0-.4.1-.6.2s-.2.4-.2.6m4.6 0V68h-1.2v-4.3h1.1v.7c.1-.2.3-.4.5-.6.2-.1.5-.2.8-.2.4 0 .8.1 1.1.4s.4.7.4 1.2V68h-1.2v-2.5c0-.2-.1-.4-.2-.6-.1-.1-.3-.2-.5-.2s-.4.1-.6.2c-.1.2-.2.4-.2.6m5.4 2.5c-.4 0-.8-.1-1.1-.3s-.6-.4-.7-.8c-.2-.4-.3-.8-.2-1.2 0-.4.1-.8.2-1.1.2-.3.4-.6.7-.8.6-.3 1.4-.3 2.1 0 .3.2.6.4.7.7q.3.6.3 1.2v.3h-2.9c0 .3.1.5.2.8.2.2.4.3.7.3.2 0 .4 0 .5-.1s.2-.2.3-.4l1.1.1q-.15.6-.6.9c-.4.3-.8.4-1.3.4m-.9-2.6h1.8c0-.2-.1-.5-.2-.6-.4-.3-.9-.3-1.3 0-.2.1-.3.4-.3.6m5.4 2.6c-.4 0-.8-.1-1.1-.3s-.6-.4-.7-.8c-.2-.4-.3-.7-.2-1.1 0-.4.1-.8.2-1.1.2-.3.4-.6.7-.8s.7-.3 1.1-.3c.3 0 .7.1 1 .2q.45.15.6.6c.2.3.3.5.3.8h-1.1c0-.2-.1-.4-.2-.5s-.3-.2-.5-.2c-.3 0-.5.1-.7.3-.3.6-.3 1.3 0 1.9.1.2.4.3.7.3.2 0 .4-.1.5-.2s.2-.3.2-.5h1.1c0 .3-.1.6-.3.8l-.6.6c-.3.2-.7.3-1 .3m4.7-4.3v.9h-.8v2c0 .1 0 .2.1.3s.2.1.3.1h.3l.2.9-.2.1c-.1 0-.3 0-.4.1-.4 0-.7-.1-1-.3s-.4-.6-.4-.9v-2.2h-.6v-.9h.6v-1h1.1v1zm1.3-.5c-.2 0-.3-.1-.4-.2s-.2-.3-.2-.4c0-.2.1-.3.2-.4s.3-.2.4-.2c.2 0 .3.1.5.2.1.1.2.3.2.4 0 .2-.1.3-.2.4-.2.1-.4.2-.5.2m-.7 4.8v-4.3h1.2V68zm3.9 0c-.4 0-.8-.1-1.1-.3s-.6-.4-.7-.8c-.2-.3-.3-.7-.3-1.1s.1-.8.3-1.2c.2-.3.4-.6.7-.8s.7-.3 1.1-.3.8.1 1.1.3.6.4.7.8q.3.6.3 1.2t-.3 1.2c-.2.3-.4.6-.7.8-.4.1-.8.2-1.1.2m0-.9c.3 0 .5-.1.6-.4.3-.6.3-1.3 0-1.8-.1-.2-.4-.4-.6-.4-.3 0-.5.1-.7.4-.3.6-.3 1.3 0 1.8.1.3.4.4.7.4m3.8-1.6V68h-1.2v-4.3h1.1v.7c.1-.2.3-.4.5-.6.2-.1.5-.2.8-.2.4 0 .8.1 1.1.4s.4.7.4 1.2V68h-1.2v-2.5c0-.2-.1-.4-.2-.6-.1-.1-.3-.2-.6-.2-.2 0-.4.1-.6.2 0 .2-.1.4-.1.6" class="st1"/><path d="m41.9 22.7-4.5 32.9c6.5-2.3 11.4-7.8 12.4-15s-2.3-13.9-7.9-17.9" style="fill:#e6000e"/><path d="M25.3 20.4c-6.3 2.3-11.5 7.9-12.5 15.1s2.2 13.8 7.9 17.8z" style="fill:#00943d"/><path d="m55.5 25.4-1 .5c2.9 5.2 4 10.8 3.2 16.7-.5 4-2 7.9-4.4 11.5.3.2.5.5.8.7 2.4-3.7 4.1-7.8 4.7-12.1.9-5.9-.4-12.1-3.3-17.3M6.4 28.8c1.1-2.8 2.6-5.4 4.5-7.4l-.6-.8c-2.2 2.2-3.6 5-4.7 7.9-1 2.1-1.5 4.3-1.8 6.7-.7 5 0 10.1 2.1 14.7l1-.5c-2-4.4-2.7-9.3-2-14.3.2-2.1.7-4.1 1.5-6.3" class="st1"/><path d="M20.7 53.3c2.3 1.7 5.1 2.7 8.1 3.1s6 .1 8.6-.8l4.5-32.9c-2.3-1.7-5.1-2.7-8.1-3.1s-6-.1-8.6.8c.1 0-4.5 32.9-4.5 32.9" class="st0"/><path d="m15.4 20.7-5.2-6.1 1.8-1.5 5.2 6.1zm4-3-2.9-5.4-1.8 1-.9-1.6 5.7-3.1.9 1.6-1.8 1 2.9 5.4zm3.3-2 .6-8.3 2.8-.7 4.2 7.2-2.4.6-.8-1.5-2.2.5v1.6zM25 9v2.9l1.5-.3L25.2 9zm11.1 5.4-5.3-.3.4-8 2.3.1-.3 6.1 3 .2zm.8.3L39 7l2.2.6-2 7.7zm2.9.5 6-5.9 2.6 1.4-1.6 8.2-2.2-1.2.4-1.6-2-1.1-1.1 1.2zm6.2-3.5-2 2.1 1.3.7zm1 7.5 5.8-5.5L54 15l-1 4.9v.1l3-2.8 1.5 1.5-5.8 5.5-1.2-1.3 1.1-5-.1-.1-3 2.9zM13.3 54.8c.1.5 0 .9-.2 1.3s-.5.8-.8 1q-.6.45-1.2.6c-.6.15-.9.1-1.3-.1s-.8-.5-1.2-.9l-.7-.9-1.6 1.3L5 55.5l5.7-4.6 2.1 2.5c.2.5.4 1 .5 1.4m-2 0c0-.3-.1-.5-.3-.8l-.4-.5L9 54.9l.4.5c.1.2.3.3.5.4s.3.1.5.1.4-.1.5-.3c.3-.3.4-.5.4-.8m7.1 4.1c.2.4.3.8.3 1.3 0 .4-.2.8-.5 1.2-.2.3-.5.6-.8.7s-.6.2-.8.2H16l-.5 3.1-1.9-1.4.5-2.7-.6-.4-1.5 2-1.7-1.2 4.3-5.9 2.7 1.9c.5.4.9.8 1.1 1.2M15 60.3c.2.2.5.2.7.2s.5-.1.6-.4c.2-.3.2-.5.2-.7s-.2-.4-.4-.6l-.7-.5-1.1 1.5zm2.2 5.9 3.1-6.6 1.9.9-3.1 6.6zm4.3 2 1.7-7.1 1.6.4 1.7 4.3h.1l.9-3.7 1.9.4-1.7 7.1-1.7-.4-1.7-4.3h-.1l-.9 3.7zm10.1 1.6-.1-5.6h-1.9v-1.7l5.9-.1v1.7h-1.9l.1 5.6zm5.8-.5L36 62.1l2.1-.4 1.4 7.2zm4.5-.9L39 61.6l1.5-.6 3.9 2.4h.1L43 60l1.8-.8 2.9 6.7-1.5.6-3.9-2.5h-.1l1.5 3.5zM50.3 58c-.1-.1-.2-.1-.3-.2s-.2-.1-.4-.1c-.1 0-.3 0-.4.1s-.2.1-.3.2c-.3.3-.5.6-.4.9 0 .4.2.7.5 1.2l.5.6.6.6c.2.2.5.2.7.3.2 0 .5-.1.8-.3.2-.2.3-.3.4-.5s.1-.3.1-.5-.1-.3-.2-.4l-.1-.1-.8.6-.9-1.1 2.3-1.9.9 1.1c.2.3.4.6.5.9s.2.7.1 1.1c0 .4-.1.7-.4 1.1-.2.4-.5.7-1 1.1s-.9.6-1.4.8c-.4.1-.9.1-1.3.1-.4-.1-.8-.2-1.1-.5-.4-.2-.7-.5-1-.9l-.5-.7c-.4-.5-.7-1-.8-1.6s-.1-1.1.1-1.6.6-1 1.2-1.5c.4-.3.8-.6 1.2-.7s.8-.2 1.1-.1c.4 0 .7.1 1 .3s.5.4.7.6z" class="st1"/><path d="M251.2 0h49.2c3.6.1 6.4 3 6.3 6.6v20.6c.1 3.6-2.7 6.5-6.3 6.6h-49.2c-3.6-.1-6.4-3-6.3-6.6V6.6c-.1-3.5 2.7-6.5 6.3-6.6-.1 0 0 0 0 0" class="st0"/><path d="M261.9 11.8c-.6-.7-1.5-1-2.4-.9h-3.2c-.2 0-.4.2-.5.4l-1.4 9q0 .3.3.3h1.7c.2 0 .4-.1.4-.3l.4-2.5c0-.2.2-.4.4-.4h1c1.9.2 3.6-1.2 3.8-3.1v-.2c.1-.8-.1-1.6-.5-2.3m-2 2.4c-.2 1.3-1.1 1.3-1.9 1.3h-.5l.3-2.3c0-.1.2-.2.3-.2h.2c.6 0 1.2 0 1.5.4.1.1.1.4.1.8m9.6 0h-1.6c-.1 0-.3.1-.3.2v.5l-.1-.2c-.5-.5-1.2-.8-1.9-.7-1.9.1-3.4 1.5-3.6 3.4-.2.9.1 1.9.6 2.6.5.6 1.2.9 2 .9.9 0 1.7-.3 2.3-1v.5q0 .3.3.3h1.5c.2 0 .4-.2.5-.4l.8-5.9c.1-.1 0-.3-.2-.3-.1 0-.2 0-.3.1 0-.1 0 0 0 0m-4.1 4.9c-.4 0-.8-.2-1.1-.5q-.3-.6-.3-1.2c.1-.9.8-1.7 1.8-1.7.4 0 .8.2 1.1.5s.4.8.3 1.2c0 .9-.8 1.7-1.8 1.7m12.5-4.9h-1.6c-.2 0-.3.1-.4.2l-2.2 3.4-.9-3.3c-.1-.2-.2-.3-.4-.3h-1.6c-.1 0-.3.1-.3.3v.1l1.7 5.5-1.6 2.5c-.1.1-.1.3.1.4 0 0 .1.1.2.1h1.6c.2 0 .3-.1.4-.2l5.3-8.1q0-.45-.3-.6.15 0 0 0" style="fill:#253b80"/><path d="M285.7 11.8c-.6-.7-1.5-1-2.4-.9h-3.4c-.2 0-.4.2-.4.4l-1.4 9q0 .3.3.3h1.7q.3 0 .3-.3l.4-2.6c0-.2.2-.4.4-.4h1.1c1.9.2 3.6-1.3 3.8-3.2v-.2c.2-.6 0-1.4-.4-2.1m-2.1 2.4c-.2 1.2-1.1 1.2-2 1.2h-.5l.4-2.3c0-.2.1-.3.3-.2h.2q.75-.15 1.5.3c.2.4.2.7.1 1m9.6 0h-1.6c-.1 0-.3.1-.3.2v.5l-.1-.2c-.5-.5-1.2-.8-1.9-.7-1.9.1-3.4 1.5-3.6 3.4-.2.9 0 1.9.6 2.6.5.6 1.2.9 2 .9s1.6-.4 2.2-1v.5c0 .1.1.3.2.3h1.5c.2 0 .4-.2.4-.4l.8-5.8c.2-.1.1-.2-.2-.3-.1 0 .1 0 0 0m-4 4.9c-.4 0-.8-.2-1.1-.5-.2-.4-.3-.8-.2-1.2.1-.9.8-1.7 1.8-1.7.7 0 1.3.5 1.4 1.2 0 .2 0 .3-.1.5 0 .9-.8 1.7-1.8 1.7m7.7-8.2h-1.6c-.1 0-.3.1-.3.2l-1.2 9.2c0 .1.1.3.2.3h1.4c.2 0 .4-.2.4-.4l1.4-9c0-.1 0-.2-.3-.3" style="fill:#179bd7"/><path d="M83.4.2h48.2c3.8 0 6.9 3.1 6.9 6.9v19.7c.1 3.8-2.9 6.9-6.7 7H83.4c-3.8 0-6.9-3.1-6.9-6.9V7.2c-.1-3.8 2.9-6.9 6.7-7z" class="st0"/><path d="m101.9 10.8-5 12.3h-3.3l-2.4-9.7c-.1-.5-.3-.9-.8-1.1-1-.5-2-.8-3.1-1v-.4h5.2c.7 0 1.3.6 1.4 1.3l1.3 7.2 3.2-8.4zm12.9 8.3c0-3.2-4.3-3.4-4.3-4.9 0-.4.4-.9 1.3-1 1-.1 2.1.1 3 .6l.5-2.6c-.9-.3-1.9-.5-2.9-.6-3 0-5.2 1.7-5.2 4 0 1.8 1.5 2.8 2.7 3.3 1.2.6 1.6 1 1.6 1.6 0 .8-1 1.2-1.8 1.2-1.1 0-2.2-.2-3.2-.8l-.6 2.7c1.1.4 2.3.7 3.5.7 3.2 0 5.4-1.6 5.4-4.2m8 4h2.8l-2.5-12.3h-2.6c-.6 0-1.1.3-1.3.9l-4.7 11.4h3.3l.7-1.8h4zm-3.5-4.4 1.6-4.6 1 4.6zm-13-7.9-2.5 12.4h-3l2.5-12.3z" style="fill:#122a96"/><path d="M152.3.2h79.4c3.5.1 6.4 3 6.3 6.5v20.6c.1 3.5-2.7 6.5-6.2 6.6h-79.5c-3.5-.1-6.4-3-6.3-6.5V6.8c-.1-3.5 2.7-6.5 6.3-6.6" class="st0"/><ellipse cx="169.2" cy="17" rx="1.9" ry="5.3" style="fill:#ff5f00"/><path d="M182.6 17c.1 4.3-3.3 7.9-7.7 8-2.2 0-4.3-1-5.7-2.7 2.6-3.1 2.6-7.5 0-10.6 2.6-3.2 7.3-3.6 10.5-1l.3.3c1.7 1.6 2.6 3.7 2.6 6" style="fill:#f79e1b"/><path d="M167.3 17c0 1.9.7 3.8 1.9 5.3-2.6 3.2-7.3 3.6-10.5 1l-.3-.3c-3.2-3-3.5-7.9-.7-11.3 2.6-3.2 7.3-3.6 10.5-1l.3.3c.2.2.5.4.7.7-1.2 1.5-1.9 3.4-1.9 5.3" style="fill:#eb001b"/><path id="XMLID_1775_" d="M195.1 20v-2.4c0-.9-.5-1.5-1.5-1.5-.5 0-1 .2-1.3.7-.3-.4-.7-.7-1.3-.7-.4 0-.8.1-1.1.5v-.5h-.8V20h.8v-2.1c0-.7.4-1 .9-1s.8.4.8 1V20h.8v-2.1c0-.7.4-1 .9-1s.8.4.8 1V20zm12.2-3.8H206v-1.1h-.8v1.1h-.7v.8h.7v1.7c0 .9.4 1.4 1.3 1.4.4 0 .7-.1 1-.3l-.2-.7c-.2.2-.5.2-.7.2-.4 0-.5-.2-.5-.6V17h1.3zm7-.1c-.5 0-.8.2-1 .5v-.5h-.8V20h.8v-2.1c0-.6.3-1 .8-1 .2 0 .4 0 .5.1l.2-.8c-.1-.1-.4-.1-.5-.1m-10.6.4c-.4-.3-.9-.4-1.5-.4-.9 0-1.6.5-1.6 1.2 0 .6.5 1 1.3 1.1h.4c.4.1.7.2.7.4 0 .3-.3.5-.9.5-.5 0-1-.2-1.3-.4l-.4.6c.4.3 1 .5 1.6.5 1.1 0 1.7-.5 1.7-1.2s-.5-1-1.3-1.1h-.4c-.4 0-.6-.1-.6-.4s.3-.4.7-.4c.5 0 .9.2 1.2.3zm21.9-.4c-.5 0-.8.2-1 .5v-.5h-.8V20h.8v-2.1c0-.6.3-1 .8-1 .2 0 .4 0 .5.1l.2-.8c-.1-.1-.3-.1-.5-.1m-10.5 2c0 1.1.8 2 2 2 .5 0 .9-.1 1.3-.4l-.4-.7c-.3.2-.6.4-1 .4-.7 0-1.1-.5-1.1-1.2s.5-1.2 1.1-1.2c.4 0 .7.1 1 .4l.4-.7c-.4-.3-.8-.4-1.3-.4-1.2-.2-2 .7-2 1.8m7.6 0v-1.9h-.8v.5c-.3-.4-.7-.5-1.2-.5-1.1 0-1.9.8-1.9 2 0 1.1.8 2 1.9 2 .5 0 .9-.2 1.2-.5v.3h.8zm-3 0c0-.7.4-1.2 1.1-1.2s1.1.5 1.1 1.2-.5 1.2-1.1 1.2c-.7 0-1.1-.5-1.1-1.2m-9.9-2c-1.1 0-1.9.8-1.9 2s.8 2 1.9 2c.5 0 1.1-.2 1.5-.5l-.3-.6c-.3.2-.7.4-1.1.4-.5 0-1-.2-1.1-.9h2.8v-.3c0-1.3-.7-2.1-1.8-2.1m0 .7c.5 0 .9.3.9.9h-2c.2-.5.5-.9 1.1-.9m20.5 1.3v-3.4h-.8v2c-.3-.4-.7-.5-1.2-.5-1.1 0-1.9.8-1.9 2 0 1.1.8 2 1.9 2 .5 0 .9-.2 1.2-.5v.3h.8zm-3 0c0-.7.4-1.2 1.1-1.2s1.1.5 1.1 1.2-.5 1.2-1.1 1.2c-.7 0-1.1-.5-1.1-1.2m-27.6 0v-1.9h-.8v.5c-.3-.4-.7-.5-1.2-.5-1.1 0-1.9.8-1.9 2 0 1.1.8 2 1.9 2 .5 0 .9-.2 1.2-.5v.3h.8zm-3.1 0c0-.7.4-1.2 1.1-1.2s1.1.5 1.1 1.2-.5 1.2-1.1 1.2-1.1-.5-1.1-1.2"/></svg>